# xmcd
#
# Track frame offsets:
#	150
#	17735
#	39982
#	57597
#	76997
#	90590
#	108577
#	124587
#	151314
#	166911
#	194277
#	209757
#
# Disc length: 2983 seconds
#
# Revision: 2
# Processed by: cddbd v1.5.2PL0 Copyright (c) Steve Scherf et al.
# Submitted via: audiograbber 1.83.01
#
DISCID=9a0ba50c
DTITLE=Michelle Williams - Heart to Yours
DYEAR=2002
DGENRE=Gospel
TTITLE0=Heart To Yours
TTITLE1=Heard A Word
TTITLE2=So Glad (Duet With Mary Mary)
TTITLE3=Sun Will Shine Again
TTITLE4=Better Place (9.11)
TTITLE5=Change The World
TTITLE6=Everything
TTITLE7=You Care For Me (Featuring Isaac Carree and Lowell Pye of Men Of Standard
TTITLE7=)
TTITLE8=Steal Away To Jesus (Duet With Shirley Caesar)
TTITLE9=Rock With Me
TTITLE10=Gospel Medley (Featuring Destiny's Child)
TTITLE11=Heaven (Bonus Track) (Featuring Carl Thomas)
EXTD=
EXTT0=
EXTT1=
EXTT2=
EXTT3=
EXTT4=
EXTT5=
EXTT6=
EXTT7=
EXTT8=
EXTT9=
EXTT10=
EXTT11=
PLAYORDER=
